<svg width="202" height="54" viewBox="0 0 202 54" fill="none" xmlns="http://www.w3.org/2000/svg">
<path d="M118.306 4.88805V12.6209H104.353V40.9776H96.6176V12.6209H82.6543V4.88805H118.306Z" fill="#231F20"/>
<path d="M151.13 15.1996C151.13 13.481 150.272 12.6216 148.553 12.6216H130.946V33.2444H148.553C150.272 33.2444 151.13 32.384 151.13 30.6654V15.1996ZM148.553 4.88772C155.427 4.88772 158.864 8.32502 158.864 15.1996V30.6654C158.864 37.54 155.427 40.9773 148.553 40.9773H123.212V4.88772H148.553Z" fill="#231F20"/>
<path d="M191.528 40.9772H199.423V15.1995C199.423 8.32493 195.986 4.88762 189.111 4.88762H174.082C167.207 4.88762 163.77 8.32493 163.77 15.1995V40.9772H171.387L171.503 28.8311V15.1995C171.503 13.4809 172.363 12.6226 174.082 12.6226H189.111C190.83 12.6226 191.689 13.4809 191.689 15.1995V28.8311" fill="#231F20"/>
<path d="M195.266 33.1478H167.926V25.4965H195.266V33.1478Z" fill="#231F20"/>
<path d="M88.1357 45.2711V46.1962H86.5168V51.7466H85.5918V46.1962H83.9729V45.2711H88.1357ZM91.9832 48.9714H90.7436V51.7466H89.8186V45.2711H92.3625C93.4418 45.2711 93.9814 45.8107 93.9814 46.89V47.3525C93.9814 48.3238 93.6206 48.8573 92.899 48.9529L93.9814 51.7466H93.0563L91.9832 48.9714ZM90.7436 46.1962V48.0463H92.3625C92.825 48.0463 93.0563 47.8151 93.0563 47.3525V46.89C93.0563 46.4275 92.825 46.1962 92.3625 46.1962H90.7436ZM100.29 51.7466H99.3645L98.9344 50.359H96.5569L96.1268 51.7466H95.2017L97.1444 45.2711H98.3469L100.29 51.7466ZM96.8391 49.4339H98.6522L97.7456 46.1962L96.8391 49.4339ZM102.435 50.1277C102.435 50.5903 102.666 50.8215 103.129 50.8215H105.21V51.7466H103.129C102.05 51.7466 101.51 51.207 101.51 50.1277V46.89C101.51 45.8107 102.05 45.2711 103.129 45.2711H105.21V46.1962H103.129C102.666 46.1962 102.435 46.4275 102.435 46.89V50.1277ZM106.893 51.7466V45.2711H107.818V48.4163L110.362 45.2711H111.518L108.974 48.5089L111.518 51.7466H110.362L107.818 48.6014V51.7466H106.893ZM113.895 45.2711V51.7466H112.97V45.2711H113.895ZM116.503 45.2711L119.278 49.8965V45.2711H120.203V51.7466H119.278L116.503 47.1213V51.7466H115.578V45.2711H116.503ZM122.811 50.1277C122.811 50.5903 123.042 50.8215 123.505 50.8215H124.43C124.893 50.8215 125.124 50.5903 125.124 50.1277V48.9714H123.736V48.0463H126.049V50.1277C126.049 51.207 125.509 51.7466 124.43 51.7466H123.505C122.426 51.7466 121.886 51.207 121.886 50.1277V46.89C121.886 45.8107 122.426 45.2711 123.505 45.2711H126.049V46.1962H123.505C123.042 46.1962 122.811 46.4275 122.811 46.89V50.1277ZM132.884 45.2711C133.963 45.2711 134.503 45.8107 134.503 46.89V50.1277C134.503 51.207 133.963 51.7466 132.884 51.7466H130.34V45.2711H132.884ZM133.577 46.89C133.577 46.4275 133.346 46.1962 132.884 46.1962H131.265V50.8215H132.884C133.346 50.8215 133.577 50.5903 133.577 50.1277V46.89ZM140.811 51.7466H139.886L139.456 50.359H137.078L136.648 51.7466H135.723L137.666 45.2711H138.868L140.811 51.7466ZM137.36 49.4339H139.173L138.267 46.1962L137.36 49.4339ZM146.194 45.2711V46.1962H144.575V51.7466H143.65V46.1962H142.031V45.2711H146.194ZM152.502 51.7466H151.577L151.147 50.359H148.769L148.339 51.7466H147.414L149.357 45.2711H150.559L152.502 51.7466ZM149.052 49.4339H150.865L149.958 46.1962L149.052 49.4339ZM160.956 51.7466H160.031L159.6 50.359H157.223L156.793 51.7466H155.868L157.81 45.2711H159.013L160.956 51.7466ZM157.505 49.4339H159.318L158.412 46.1962L157.505 49.4339ZM163.101 45.2711L165.876 49.8965V45.2711H166.801V51.7466H165.876L163.101 47.1213V51.7466H162.176V45.2711H163.101ZM173.11 51.7466H172.185L171.754 50.359H169.377L168.947 51.7466H168.022L169.964 45.2711H171.167L173.11 51.7466ZM169.659 49.4339H171.472L170.566 46.1962L169.659 49.4339ZM175.255 50.8215H178.03V51.7466H174.33V45.2711H175.255V50.8215ZM180.268 45.2711L181.563 48.0463L182.858 45.2711H183.876L182.026 48.9714V51.7466H181.101V48.9714L179.251 45.2711H180.268ZM189.259 45.2711V46.1962L186.16 50.8215H189.259V51.7466H185.096V50.8215L188.195 46.1962H185.096V45.2711H189.259ZM194.642 48.0463V48.9714H191.867V50.8215H194.642V51.7466H190.942V45.2711H194.642V46.1962H191.867V48.0463H194.642ZM198.49 48.9714H197.25V51.7466H196.325V45.2711H198.869C199.948 45.2711 200.488 45.8107 200.488 46.89V47.3525C200.488 48.3238 200.127 48.8573 199.405 48.9529L200.488 51.7466H199.563L198.49 48.9714ZM197.25 46.1962V48.0463H198.869C199.331 48.0463 199.563 47.8151 199.563 47.3525V46.89C199.563 46.4275 199.331 46.1962 198.869 46.1962H197.25Z" fill="#5F6062"/>
<path d="M41.7237 26.7051H63.1804C63.3912 25.3817 63.3637 25.3382 62.1854 25.3382C55.6976 25.3361 49.2097 25.3372 42.7218 25.3393C42.3987 25.3403 42.0755 25.3679 41.7237 25.3848V26.7051ZM40.1756 33.0584H62.2352V31.6883H40.2456C40.2223 32.1429 40.2011 32.5614 40.1756 33.0584ZM38.9306 39.4043H61.324V38.0342H38.9306V39.4043ZM36.9195 46.4325H60.7009V45.0614H36.9195V46.4325ZM30.9021 9.10109C30.5122 6.27729 32.4587 2.78382 35.1532 1.36185C36.6377 0.577759 38.2154 0.228096 39.8832 0.220678C44.6206 0.200546 49.358 0.166637 54.0955 0.172995C54.3582 0.172995 54.6835 0.429417 54.8721 0.655109C58.372 4.86273 61.8538 9.0852 65.3451 13.3013C66.3952 14.5686 67.4643 15.8221 68.5175 17.0872C68.6373 17.2313 68.8206 17.4252 68.7983 17.5683C68.2929 20.8583 67.7292 24.1398 67.2481 27.432C66.8646 30.0544 66.5891 32.6907 66.2436 35.3185C65.7414 39.1425 65.3409 42.9857 64.6648 46.78C64.1541 49.6462 61.6122 52.5696 58.1484 53.0719C55.6085 53.4406 52.9935 53.3431 50.4113 53.3569C44.4606 53.3887 38.5089 53.3823 32.5583 53.3495C29.957 53.3357 27.7944 52.4584 26.4741 50.0171C26.3205 49.7321 25.779 49.5159 25.4113 49.5085C23.1597 49.4608 20.907 49.4968 18.6543 49.4746C17.7548 49.4661 17.0194 49.108 16.657 48.2243C16.3328 47.4338 16.4303 46.6444 17.0671 46.0977C17.457 45.7618 18.0536 45.5266 18.5696 45.5032C20.2141 45.427 21.866 45.5234 23.5104 45.4524C24.6304 45.4036 25.7557 45.2458 26.8577 45.0285C28.0317 44.7965 28.5361 44.006 28.4089 42.8352C28.3093 41.9134 27.5284 41.2607 26.4179 41.2585C20.4673 41.2469 14.5156 41.2522 8.56494 41.2522C7.95991 41.2522 7.35383 41.267 6.74881 41.249C5.45399 41.2109 4.49506 40.3187 4.49188 39.1711C4.48976 38.0257 5.45293 37.0848 6.73503 37.0848C12.8881 37.088 19.04 37.1177 25.192 37.1325C27.4786 37.1378 29.7641 37.1198 32.0497 37.124C32.9334 37.1261 33.5659 36.6864 33.8107 35.9002C34.0724 35.0642 33.9739 34.1508 33.1251 33.6782C32.6028 33.3869 31.9204 33.2862 31.3058 33.2756C28.8857 33.2311 26.4646 33.2703 24.0445 33.248C22.9489 33.2375 22.2082 32.6473 21.9867 31.7063C21.7653 30.7612 22.2082 29.7768 23.1173 29.3784C23.4681 29.2237 23.8972 29.2004 24.2914 29.1983C27.2836 29.1845 30.2759 29.1919 33.2682 29.1898C34.6838 29.1888 35.5283 28.5064 35.5569 27.3493C35.5855 26.2219 34.6202 25.3456 33.2597 25.3425C28.4513 25.3308 23.6439 25.3435 18.8355 25.3435C13.456 25.3435 8.07647 25.3499 2.69694 25.3308C0.824646 25.3244 -0.136399 24.0031 0.553393 22.4371C0.918951 21.6106 1.58649 21.298 2.48396 21.3033C6.21583 21.3213 9.9477 21.3075 13.6806 21.3075C22.1531 21.3086 30.6256 21.315 39.0991 21.3075C40.8972 21.3065 41.8869 19.8305 41.1049 18.3396C40.6503 17.4729 39.8292 17.3426 38.955 17.3426C33.8774 17.3447 28.801 17.3436 23.7234 17.3426C22.0768 17.3426 20.4281 17.3648 18.7815 17.332C17.7993 17.3118 17.0713 16.8806 16.7799 15.8602C16.5299 14.9829 16.7577 14.221 17.4793 13.7463C17.9169 13.4581 18.5367 13.3405 19.0782 13.3299C23.9841 13.2314 28.891 13.1752 33.798 13.1032C35.6798 13.0745 37.5627 13.0534 39.4435 12.9951C40.4151 12.9654 41.071 12.4388 41.3211 11.5011C41.5425 10.6725 41.2522 9.94982 40.5476 9.50373C40.1852 9.2738 39.6787 9.18797 39.2368 9.18268C36.6483 9.15407 34.0586 9.16996 31.4701 9.16466C31.2762 9.16466 31.0823 9.12228 30.9021 9.10109" fill="#42B75E"/>
<path d="M10.1348 17.3425C9.22987 17.3425 8.32498 17.369 7.42115 17.3361C6.14117 17.2884 5.38886 16.5446 5.3719 15.3685C5.35283 14.0874 5.94726 13.3892 7.31519 13.3436C9.25636 13.279 11.2028 13.2821 13.144 13.351C14.4208 13.3966 15.1244 14.2283 15.0862 15.4119C15.0512 16.4673 14.2205 17.2842 13.0497 17.334C12.0802 17.3764 11.1064 17.3425 10.1348 17.3425Z" fill="#2A915D"/>
<path d="M17.2279 33.2439C16.4904 33.2439 15.7498 33.2831 15.0155 33.2343C13.8616 33.158 13.1199 32.2998 13.158 31.1639C13.1962 30.0333 13.9845 29.2195 15.1267 29.1973C16.501 29.1719 17.8764 29.1761 19.2507 29.1962C20.4522 29.2121 21.3063 30.0386 21.3433 31.1755C21.3804 32.3125 20.5635 33.1771 19.3397 33.2439C18.6382 33.282 17.9325 33.2502 17.2279 33.2502V33.2439Z" fill="#2A915D"/>
<path d="M54.3289 0.230925L52.9122 17.569H68.7986L54.3289 0.230925Z" fill="#2A915D"/>
</svg>
